<?xml version="1.0" standalone="no"?>
<!DOCTYPE svg PUBLIC "-//W3C//DTD SVG 20010904//EN"
 "http://www.w3.org/TR/2001/REC-SVG-20010904/DTD/svg10.dtd">
<svg version="1.0" xmlns="http://www.w3.org/2000/svg"
 width="180.000000pt" height="180.000000pt" viewBox="0 0 180.000000 180.000000"
 preserveAspectRatio="xMidYMid meet">
<metadata>
Created by potrace 1.14, written by Peter Selinger 2001-2017
</metadata>
<g transform="translate(0.000000,180.000000) scale(0.100000,-0.100000)"
fill="#000000" stroke="none">
<path d="M789 1796 c-2 -2 -24 -7 -48 -11 -23 -3 -53 -10 -65 -14 -11 -5 -24
-9 -28 -10 -37 -7 -134 -45 -149 -58 -8 -7 -19 -13 -23 -13 -34 0 -286 -212
-286 -240 0 -4 -11 -20 -25 -36 -14 -16 -25 -35 -25 -41 0 -7 -4 -13 -8 -13
-12 0 -68 -125 -92 -204 -26 -87 -33 -138 -34 -251 -1 -80 1 -109 19 -203 5
-28 23 -89 35 -117 4 -11 14 -35 21 -54 15 -39 107 -184 120 -189 5 -2 9 -7 9
-12 0 -16 117 -124 185 -170 106 -72 241 -129 350 -146 11 -2 70 -5 130 -7 97
-3 141 1 275 27 20 4 42 13 127 52 215 97 384 278 465 499 42 113 52 172 52
310 0 132 -4 173 -24 235 -6 19 -13 46 -16 59 -8 38 -63 150 -107 216 -47 70
-161 186 -230 234 -39 26 -158 91 -177 96 -3 1 -12 5 -20 8 -17 7 -115 35
-151 43 -30 7 -274 15 -280 10z"/>
</g>
</svg>
